<?xml version="1.0" standalone="no"?>
<!DOCTYPE svg PUBLIC "-//W3C//DTD SVG 20010904//EN"
 "http://www.w3.org/TR/2001/REC-SVG-20010904/DTD/svg10.dtd">
<svg version="1.0" xmlns="http://www.w3.org/2000/svg"
 width="200.000000pt" height="200.000000pt" viewBox="0 0 200.000000 200.000000"
 preserveAspectRatio="xMidYMid meet">
<metadata>
Created by potrace 1.11, written by Peter Selinger 2001-2013
</metadata>
<g transform="translate(0.000000,200.000000) scale(0.100000,-0.100000)"
fill="#000000" stroke="none">
<path d="M538 1945 c-2 -1 -34 -5 -73 -9 -183 -17 -369 -174 -436 -366 -25
-73 -34 -242 -17 -317 14 -64 30 -68 157 -44 59 12 110 21 112 21 2 0 3 -66 2
-147 -2 -173 15 -299 42 -320 38 -27 65 -17 215 83 52 35 111 78 130 95 19 17
49 42 65 57 17 14 55 50 86 79 l57 54 17 -93 c25 -132 27 -329 4 -443 -36
-179 -139 -323 -279 -393 l-63 -32 -211 0 c-116 0 -216 -4 -222 -8 -32 -21
-34 -78 -3 -98 7 -4 403 -7 881 -7 825 0 869 1 888 18 25 23 26 57 2 78 -16
15 -49 17 -255 17 l-236 0 39 82 c87 190 98 379 35 621 -7 27 -2 24 73 -36 85
-69 110 -82 141 -72 20 6 29 23 38 65 7 39 9 263 3 328 l-5 59 55 -12 c30 -7
81 -16 112 -20 53 -6 60 -4 83 19 24 24 25 29 21 128 -3 75 -11 125 -30 183
-84 260 -257 412 -477 420 -166 6 -325 -52 -424 -155 l-56 -59 -37 37 c-85 86
-207 152 -317 171 -85 15 -114 18 -117 16z m137 -141 c49 -15 170 -77 179 -92
2 -4 -36 -8 -85 -9 -131 -2 -233 -39 -316 -116 -45 -41 -104 -132 -116 -177
-4 -14 -10 -30 -15 -37 -7 -12 -192 -57 -200 -49 -8 8 -3 123 8 171 37 163
190 305 351 323 78 10 129 6 194 -14z m948 -18 c68 -33 146 -115 188 -199 33
-65 69 -192 69 -244 0 -39 -10 -41 -110 -15 -50 13 -67 23 -76 42 -7 14 -27
56 -45 94 -78 163 -246 257 -433 244 l-56 -4 21 22 c27 29 126 73 181 80 23 4
45 8 48 11 3 3 39 3 81 0 53 -3 92 -13 132 -31z m-681 -220 c72 -16 81 -15
149 2 286 75 466 -48 513 -348 12 -71 18 -268 9 -273 -8 -5 -33 14 -167 127
-154 128 -356 337 -356 367 0 17 -50 41 -73 35 -14 -3 -41 -30 -65 -63 -67
-96 -91 -122 -227 -258 -117 -117 -314 -271 -316 -248 0 4 -3 17 -5 28 -11 49
-5 255 11 325 19 89 62 182 105 228 35 38 109 78 166 90 54 12 165 6 256 -12z
m212 -383 c69 -70 126 -129 126 -130 0 -1 11 -26 24 -55 83 -186 113 -389 80
-548 -17 -80 -66 -196 -105 -245 l-24 -30 -227 0 c-126 0 -228 0 -228 1 0 0
22 23 48 51 26 28 59 71 72 97 28 51 14 48 181 48 73 -1 90 3 108 19 26 25 27
53 2 78 -16 16 -34 19 -111 19 -50 0 -93 2 -96 4 -2 3 2 38 11 79 8 41 16 99
18 129 l3 55 99 3 c111 3 135 15 135 63 0 45 -30 57 -140 56 l-95 -1 -2 30
c-5 59 -25 171 -45 251 l-20 82 29 35 c15 20 29 36 29 36 1 0 58 -57 128 -127z"/>
</g>
</svg>
